# xmcd
#
# Track frame offsets:
#	150
#	20315
#	37033
#	52696
#	68372
#	86276
#	108732
#	129678
#	147286
#	165075
#
# Disc length: 2402 seconds
#
# Revision: 0
# Processed by: cddbd v1.5.2PL0 Copyright (c) Steve Scherf et al.
# Submitted via: EasyCDDAExtractor 12.0.1.1
#
DISCID=7309600a
DTITLE=Alvaro Torres - 3 Momentos De Coleccion - CD 2
DYEAR=2004
DGENRE=Latin
TTITLE0=Te Olvidare
TTITLE1=Angel Caido
TTITLE2=Si Estuvieras Conmigo
TTITLE3=A Tu Ritmo
TTITLE4=Te Llevo Dentro
TTITLE5=Ni Tu, Ni Ella
TTITLE6=Te Dejo Libre
TTITLE7=Que Lastima
TTITLE8=Por Ti Mi Amor
TTITLE9=Amame
EXTD=
EXTT0=
EXTT1=
EXTT2=
EXTT3=
EXTT4=
EXTT5=
EXTT6=
EXTT7=
EXTT8=
EXTT9=
PLAYORDER=
